<?xml version="1.0" standalone="no"?>
<!DOCTYPE svg PUBLIC "-//W3C//DTD SVG 20010904//EN"
 "http://www.w3.org/TR/2001/REC-SVG-20010904/DTD/svg10.dtd">
<svg version="1.0" xmlns="http://www.w3.org/2000/svg"
 width="869.000000pt" height="869.000000pt" viewBox="0 0 869.000000 869.000000"
 preserveAspectRatio="xMidYMid meet">
<metadata>
Created by potrace 1.16, written by Peter Selinger 2001-2019
</metadata>
<g transform="translate(0.000000,869.000000) scale(0.100000,-0.100000)"
fill="#000000" stroke="none">
<path d="M0 4345 l0 -4345 4345 0 4345 0 0 4345 0 4345 -4345 0 -4345 0 0
-4345z m1880 1376 l0 -310 283 -3 c277 -3 283 -4 356 -30 176 -64 318 -208
383 -388 22 -63 23 -76 26 -443 l3 -378 -93 3 -93 3 -5 365 -5 365 -34 69
c-43 87 -120 164 -207 207 l-68 34 -273 3 -273 3 0 -526 0 -526 -92 3 -93 3
-3 928 -2 927 95 0 95 0 0 -309z m-322 -408 l3 -93 -324 0 c-178 0 -349 -5
-378 -10 -130 -25 -245 -114 -306 -238 -37 -73 -38 -80 -38 -182 0 -103 1
-109 38 -183 47 -95 116 -166 206 -210 l66 -32 367 -3 368 -3 0 -95 0 -94
-352 0 c-280 0 -366 3 -417 15 -225 53 -405 240 -457 473 -34 152 -1 335 82
461 99 149 272 262 439 284 17 2 181 4 365 3 l335 -1 3 -92z m2494 69 c81 -33
160 -108 200 -190 l33 -67 3 -310 c3 -267 1 -319 -14 -373 -31 -118 -132 -223
-248 -257 -75 -23 -640 -22 -716 1 -143 42 -247 173 -258 325 -11 151 67 283
206 351 l67 33 387 3 388 3 0 82 c-1 122 -36 185 -122 222 -32 13 -98 15 -423
15 l-385 0 0 88 c0 49 3 92 7 96 4 4 190 6 413 4 397 -3 406 -4 462 -26z
m1175 -7 c182 -62 330 -208 390 -389 l27 -81 4 -367 3 -368 -95 0 -96 0 0 333
c0 370 -5 409 -63 506 -177 296 -610 270 -760 -46 l-32 -68 -3 -362 -3 -363
-95 0 -95 0 3 373 3 372 27 75 c79 214 272 376 492 411 82 13 210 1 293 -26z
m1778 -755 l0 -785 -28 -60 c-30 -64 -89 -133 -148 -170 -81 -52 -109 -55
-571 -55 l-428 0 0 95 0 95 422 0 c409 0 423 1 466 21 26 13 54 38 70 62 26
39 27 47 30 193 l3 153 -283 3 c-266 3 -287 5 -348 27 -183 65 -325 209 -391
398 -29 81 -35 227 -15 323 51 243 256 438 504 480 26 4 198 7 382 6 l335 -1
0 -785z m952 755 c125 -39 228 -118 314 -239 64 -91 99 -198 106 -328 l6 -98
-523 0 -522 0 6 -30 c21 -108 119 -226 233 -282 l68 -33 335 -5 335 -5 3 -93
3 -93 -348 3 -348 3 -74 27 c-178 65 -316 208 -382 395 -29 81 -35 227 -15
323 51 240 254 436 499 480 81 14 215 4 304 -25z m-4148 -2210 c36 -18 61 -71
61 -129 0 -44 -1 -46 -30 -46 -29 0 -30 2 -30 43 0 58 -22 87 -65 87 -60 0
-65 -19 -65 -230 0 -211 5 -230 65 -230 46 0 65 29 65 97 0 52 0 53 30 53 30
0 30 0 30 -56 0 -100 -44 -154 -125 -154 -48 0 -91 24 -110 60 -22 42 -22 418
0 460 29 55 113 77 174 45z m-1799 -275 l0 -280 -30 0 -30 0 0 280 0 280 30 0
30 0 0 -280z m518 253 c-3 -26 -7 -28 -55 -31 l-53 -3 0 -250 0 -249 -30 0
-30 0 0 250 0 250 -50 0 c-49 0 -50 1 -50 30 l0 30 136 0 135 0 -3 -27z m796
-236 c27 -144 52 -270 54 -280 4 -16 -1 -18 -29 -15 -33 3 -34 5 -43 56 l-9
53 -71 -3 -71 -3 -9 -52 c-8 -50 -11 -53 -37 -53 -16 0 -29 4 -29 8 0 5 22
128 50 273 27 145 50 267 50 272 0 4 21 7 48 7 l47 0 49 -263z m1040 0 c27
-144 52 -270 54 -280 4 -16 -1 -18 -29 -15 -33 3 -34 5 -43 56 l-9 53 -71 -3
-71 -3 -9 -52 c-8 -50 -11 -53 -37 -53 -16 0 -29 4 -29 8 0 5 22 128 50 273
27 145 50 267 50 272 0 4 21 7 48 7 l47 0 49 -263z m497 247 c51 -26 59 -62
59 -264 0 -260 -13 -280 -175 -280 l-85 0 0 280 0 280 85 0 c59 0 96 -5 116
-16z m549 -14 l0 -30 -85 0 -85 0 0 -95 0 -95 71 0 70 0 -3 -27 c-3 -27 -5
-28 -70 -31 l-68 -3 0 -94 0 -95 85 0 85 0 0 -30 0 -30 -115 0 -115 0 0 280 0
280 115 0 115 0 0 -30z m343 8 c3 -13 22 -102 42 -198 20 -96 39 -184 42 -195
4 -12 20 45 40 145 18 91 38 189 44 218 l10 52 45 0 44 0 0 -280 0 -280 -30 0
-30 0 -1 213 -1 212 -44 -210 c-23 -115 -43 -211 -44 -213 0 -2 -14 -2 -32 0
l-32 3 -40 195 -41 195 -3 -197 -2 -198 -30 0 -30 0 0 280 0 280 44 0 c37 0
45 -3 49 -22z m618 -115 l43 -136 44 136 c42 135 43 137 72 137 17 0 30 -1 30
-3 0 -1 -27 -83 -60 -182 -57 -170 -60 -184 -60 -277 l0 -98 -30 0 -30 0 0 99
c0 93 -3 109 -59 280 l-59 181 33 0 33 0 43 -137z"/>
<path d="M3345 4694 c-91 -47 -128 -139 -91 -227 17 -43 78 -95 118 -102 18
-3 164 -5 324 -3 l291 3 37 29 c59 44 76 92 76 214 l0 102 -362 0 c-309 0
-367 -2 -393 -16z"/>
<path d="M6302 5209 c-179 -35 -325 -200 -339 -382 -14 -190 74 -344 247 -430
l64 -32 273 -3 273 -3 0 430 0 431 -237 -1 c-131 -1 -257 -5 -281 -10z"/>
<path d="M7673 5210 c-117 -24 -245 -124 -296 -232 -15 -31 -27 -62 -27 -67 0
-8 129 -11 415 -11 l415 0 -15 38 c-86 203 -283 313 -492 272z"/>
<path d="M3196 2941 c-14 -76 -26 -146 -26 -155 0 -13 11 -16 55 -16 48 0 55
2 55 20 0 21 -50 283 -55 288 -1 1 -14 -60 -29 -137z"/>
<path d="M4236 2941 c-14 -76 -26 -146 -26 -155 0 -13 11 -16 55 -16 48 0 55
2 55 20 0 21 -50 283 -55 288 -1 1 -14 -60 -29 -137z"/>
<path d="M4720 2890 l0 -221 57 3 c80 4 83 12 83 218 0 206 -3 214 -83 218
l-57 3 0 -221z"/>
</g>
</svg>
