<?xml version="1.0" encoding="UTF-8" standalone="no"?>
<svg
   width="2500"
   height="2500"
   viewBox="0 0 192.756 192.756"
   version="1.1"
   id="svg10"
   sodipodi:docname="c837add33a038087e9865e498ab6c3c4.svg"
   xmlns:inkscape="http://www.inkscape.org/namespaces/inkscape"
   xmlns:sodipodi="http://sodipodi.sourceforge.net/DTD/sodipodi-0.dtd"
   xmlns="http://www.w3.org/2000/svg"
   xmlns:svg="http://www.w3.org/2000/svg">
  <defs
     id="defs14" />
  <sodipodi:namedview
     id="namedview12"
     pagecolor="#ffffff"
     bordercolor="#666666"
     borderopacity="1.0"
     inkscape:pageshadow="2"
     inkscape:pageopacity="0.0"
     inkscape:pagecheckerboard="0" />
  <g
     fill-rule="evenodd"
     clip-rule="evenodd"
     id="g8">
    <path
       fill="#ffffff"
       d="M 0,0 H 192.756 V 192.756 H 0 Z"
       id="path2" />
    <path
       d="m 184.252,91.406 c 0,-2.793 -1.5,-4.836 -2.453,-5.654 -0.953,-0.817 -1.633,-2.384 -12.396,-2.384 -10.762,0 -11.58,1.566 -12.533,2.384 -0.955,0.818 -2.453,2.793 -2.453,5.586 v 10.08 c 0,2.793 1.498,4.77 2.453,5.586 0.953,0.818 1.771,2.385 12.533,2.385 10.764,0 11.443,-1.566 12.396,-2.385 0.953,-0.816 2.453,-2.793 2.453,-5.586 v -6.879 h -14.85 v 4.496 h 6.266 V 100 a 3.531,3.531 0 0 1 -3.531,3.531 H 166.53 A 3.53,3.53 0 0 1 163.001,100 v -7.244 a 3.53,3.53 0 0 1 3.529,-3.531 h 5.607 c 1.463,0 2.717,0.888 3.252,2.154 z M 35.751,88.408 46.378,99.851 63,90.315 v -1.967 c 0,-2.6 -2.108,-4.708 -4.708,-4.708 h -45.08 a 4.708,4.708 0 0 0 -4.708,4.708 v 1.967 l 16.622,9.536 z"
       id="path4" />
    <path
       d="M 52.237,105.166 63,91.406 v 13.002 c 0,2.6 -2.108,4.707 -4.708,4.707 H 13.212 A 4.707,4.707 0 0 1 8.504,104.408 V 91.406 l 10.763,13.76 z M 117.223,83.64 v 25.477 h 8.31 V 88.681 l 9.537,20.436 h 14.987 V 83.64 h -8.311 v 20.571 L 132.072,83.64 Z m -16.69,0 H 90.452 L 80.37,94.539 H 78.531 V 83.64 H 70.22 v 25.477 h 8.311 V 99.035 h 2.589 l 9.468,10.082 h 10.353 L 88.885,96.174 Z m 11.104,25.477 V 83.64 h -8.311 v 25.477 z"
       id="path6" />
  </g>
</svg>
