<?xml version="1.0" standalone="no"?>
<!DOCTYPE svg PUBLIC "-//W3C//DTD SVG 20010904//EN"
 "http://www.w3.org/TR/2001/REC-SVG-20010904/DTD/svg10.dtd">
<svg version="1.0" xmlns="http://www.w3.org/2000/svg"
 width="1000.000000pt" height="1080.000000pt" viewBox="0 0 1000.000000 1080.000000"
 preserveAspectRatio="xMidYMid meet">
<metadata>
Created by potrace 1.16, written by Peter Selinger 2001-2019
</metadata>
<g transform="translate(0.000000,1080.000000) scale(0.100000,-0.100000)"
fill="#000000" stroke="none">
<path d="M5550 9741 c-30 -9 -66 -23 -79 -31 -46 -24 -123 -104 -149 -155 -23
-43 -27 -62 -27 -140 0 -78 4 -97 28 -147 16 -32 47 -79 71 -105 l43 -47 -61
-131 c-188 -407 -442 -876 -611 -1130 -254 -382 -434 -519 -562 -426 -164 119
-403 569 -748 1410 l-39 93 30 22 c79 57 108 110 108 196 0 81 -23 130 -94
193 -63 57 -132 82 -225 81 -206 -1 -330 -178 -244 -346 23 -45 91 -112 130
-129 16 -6 31 -21 34 -33 3 -11 59 -394 126 -851 67 -456 138 -942 158 -1080
l36 -250 45 5 c87 10 337 2 475 -14 853 -101 2145 -465 2457 -692 l46 -35 579
808 c319 445 610 852 648 905 67 94 70 98 114 104 192 27 291 197 206 352 -16
30 -43 65 -60 79 -78 67 -216 99 -310 73 -174 -49 -246 -223 -150 -364 l24
-36 -132 -113 c-522 -448 -945 -751 -1160 -832 -145 -54 -212 -25 -280 125
-62 134 -102 347 -129 675 -15 179 -16 1115 -1 1198 8 48 9 49 61 67 111 39
199 127 228 227 58 199 -81 408 -315 477 -72 21 -201 20 -271 -3z"/>
<path d="M4205 9197 c-41 -19 -83 -70 -90 -111 -9 -44 16 -103 60 -141 l34
-30 -78 -595 -79 -595 35 -67 c67 -129 167 -201 250 -179 50 14 120 74 167
146 l37 55 -91 599 c-49 330 -90 607 -90 614 0 8 14 20 30 27 67 28 98 124 62
190 -30 55 -89 91 -158 96 -38 3 -70 -1 -89 -9z"/>
<path d="M6747 8586 c-99 -36 -136 -143 -77 -219 11 -14 20 -27 20 -30 0 -2
-162 -229 -360 -503 -250 -346 -360 -506 -360 -524 1 -52 30 -164 55 -206 14
-24 39 -51 55 -59 41 -21 120 -19 181 5 70 28 156 89 168 120 15 37 401 1112
401 1116 0 2 11 4 24 4 88 0 157 81 141 166 -7 38 -54 98 -94 119 -42 21 -112
26 -154 11z"/>
<path d="M3445 6641 c-76 -19 -95 -53 -54 -97 l22 -23 -57 -232 c-55 -229 -56
-232 -93 -264 -35 -30 -38 -37 -38 -86 0 -66 23 -101 104 -157 324 -227 1522
-567 2366 -673 223 -28 468 -31 545 -7 98 31 141 105 105 181 -17 36 -16 38
40 270 l57 234 34 12 c28 10 34 17 34 41 0 199 -1630 693 -2622 795 -152 15
-390 19 -443 6z m230 -735 c481 -22 1541 -268 2125 -493 139 -53 330 -143 330
-155 0 -12 -137 -9 -300 7 -700 68 -1775 345 -2284 588 -105 50 -108 52 -75
58 19 3 48 4 64 3 17 -2 80 -5 140 -8z"/>
<path d="M7129 4240 c-322 -38 -602 -242 -744 -543 -151 -318 -125 -705 66
-989 272 -403 798 -548 1238 -342 51 24 121 64 155 88 81 58 203 185 255 265
l41 64 0 314 0 313 -365 0 -365 0 0 -195 0 -195 87 0 87 0 -43 -44 c-184 -187
-514 -124 -629 121 -24 52 -27 70 -27 163 0 86 5 115 23 162 31 76 108 159
179 194 110 54 289 42 397 -26 l44 -29 171 242 170 242 -27 23 c-43 36 -219
119 -302 141 -129 35 -278 46 -411 31z"/>
<path d="M1900 3260 l0 -940 305 0 305 0 2 288 3 287 199 -287 198 -288 359 0
c198 0 359 2 359 5 0 8 -46 76 -392 582 -158 232 -288 427 -288 433 0 5 143
196 318 422 174 226 321 418 325 425 7 11 -59 13 -360 13 l-368 0 -175 -215
-175 -215 -3 215 -2 215 -305 0 -305 0 0 -940z"/>
<path d="M3690 3260 l0 -940 320 0 320 0 0 940 0 940 -320 0 -320 0 0 -940z"/>
<path d="M4530 3260 l0 -940 295 0 295 0 2 356 3 356 254 -356 254 -356 249 0
248 0 0 940 0 940 -295 0 -295 0 -2 -357 -3 -357 -255 357 -255 357 -247 0
-248 0 0 -940z"/>
<path d="M0 400 l0 -400 5000 0 5000 0 0 400 0 400 -5000 0 -5000 0 0 -400z
m1395 106 c25 -11 33 -19 29 -30 -7 -19 -5 -19 -40 -1 -36 18 -55 19 -78 2
-28 -21 -9 -45 49 -62 87 -25 108 -74 54 -127 -29 -29 -33 -30 -90 -25 -68 6
-72 8 -64 29 5 13 12 14 40 5 50 -15 100 1 100 33 0 16 -8 28 -25 36 -87 40
-105 51 -108 67 -14 70 53 106 133 73z m587 -48 l3 -62 36 32 c20 18 45 32 55
32 14 0 9 -9 -21 -40 l-39 -40 42 -60 c40 -57 41 -60 20 -60 -16 0 -32 14 -53
45 -16 25 -33 45 -37 45 -5 0 -8 -20 -8 -45 0 -38 -3 -45 -20 -45 -19 0 -20 7
-20 130 0 122 1 130 20 130 16 0 19 -8 22 -62z m-1353 -24 c12 -15 21 -40 21
-55 0 -29 0 -29 -65 -29 -72 0 -83 -12 -44 -51 17 -17 30 -20 65 -16 43 4 59
-5 28 -17 -45 -17 -106 3 -123 41 -45 98 56 206 118 127z m456 3 c20 -16 28
-35 32 -69 5 -42 3 -50 -25 -78 -41 -41 -83 -41 -124 0 -28 28 -30 36 -25 78
9 82 84 119 142 69z m622 8 c30 -21 44 -75 32 -120 -25 -88 -143 -88 -168 0
-20 72 20 135 84 135 17 0 40 -7 52 -15z"/>
<path d="M986 424 c-50 -50 -21 -144 44 -144 48 0 80 50 66 104 -13 53 -75 75
-110 40z"/>
</g>
</svg>
