<svg width="209" height="108" viewBox="0 0 209 108" fill="none" xmlns="http://www.w3.org/2000/svg">
<g filter="url(#filter0_d_0_2014)">
<path fill-rule="evenodd" clip-rule="evenodd" d="M199 10H10V82H88L104 98L120 82H199V10Z" fill="#FACF0F"/>
<path d="M48.7369 38.2V49.192C48.7369 51.112 48.2249 52.616 47.2009 53.704C46.1929 54.792 44.6889 55.336 42.6889 55.336C40.6889 55.336 39.1769 54.792 38.1529 53.704C37.1449 52.616 36.6409 51.112 36.6409 49.192V38.2H39.8089V49.192C39.8089 50.184 40.0409 50.96 40.5049 51.52C40.9689 52.08 41.6969 52.36 42.6889 52.36C43.6809 52.36 44.4089 52.08 44.8729 51.52C45.3369 50.96 45.5689 50.184 45.5689 49.192V38.2H48.7369ZM61.5207 52.12V55H51.1527V49.96L58.6407 46.312V45.88H51.2967V43.096H61.2327V47.992L53.7447 51.688V52.12H61.5207ZM66.9846 55H63.9606V38.2H66.9846V44.824H67.4166C67.7366 44.168 68.2006 43.664 68.8086 43.312C69.4166 42.944 70.1926 42.76 71.1366 42.76C71.8406 42.76 72.5046 42.896 73.1286 43.168C73.7686 43.44 74.3206 43.84 74.7846 44.368C75.2646 44.88 75.6406 45.512 75.9126 46.264C76.2006 47.016 76.3446 47.872 76.3446 48.832V49.264C76.3446 50.24 76.2086 51.104 75.9366 51.856C75.6646 52.608 75.2966 53.248 74.8326 53.776C74.3686 54.288 73.8166 54.68 73.1766 54.952C72.5526 55.208 71.8726 55.336 71.1366 55.336C70.5926 55.336 70.1206 55.28 69.7206 55.168C69.3206 55.056 68.9686 54.904 68.6646 54.712C68.3766 54.52 68.1286 54.304 67.9206 54.064C67.7286 53.808 67.5606 53.544 67.4166 53.272H66.9846V55ZM70.1526 52.456C71.0966 52.456 71.8566 52.168 72.4326 51.592C73.0246 51 73.3206 50.2 73.3206 49.192V48.904C73.3206 47.896 73.0246 47.104 72.4326 46.528C71.8566 45.936 71.0966 45.64 70.1526 45.64C69.2086 45.64 68.4406 45.944 67.8486 46.552C67.2726 47.144 66.9846 47.928 66.9846 48.904V49.192C66.9846 50.168 67.2726 50.96 67.8486 51.568C68.4406 52.16 69.2086 52.456 70.1526 52.456ZM80.7525 50.032C80.7685 50.384 80.8485 50.712 80.9925 51.016C81.1525 51.304 81.3605 51.56 81.6165 51.784C81.8885 51.992 82.1925 52.16 82.5285 52.288C82.8805 52.4 83.2485 52.456 83.6325 52.456C84.3845 52.456 84.9605 52.328 85.3605 52.072C85.7605 51.8 86.0485 51.48 86.2245 51.112L88.8165 52.552C88.6725 52.856 88.4725 53.176 88.2165 53.512C87.9605 53.832 87.6245 54.128 87.2085 54.4C86.8085 54.672 86.3125 54.896 85.7205 55.072C85.1445 55.248 84.4645 55.336 83.6805 55.336C82.7845 55.336 81.9685 55.192 81.2325 54.904C80.4965 54.616 79.8565 54.2 79.3125 53.656C78.7845 53.112 78.3685 52.448 78.0645 51.664C77.7765 50.88 77.6325 49.992 77.6325 49V48.856C77.6325 47.944 77.7845 47.112 78.0885 46.36C78.4085 45.608 78.8405 44.968 79.3845 44.44C79.9285 43.912 80.5605 43.504 81.2805 43.216C82.0165 42.912 82.8005 42.76 83.6325 42.76C84.6565 42.76 85.5365 42.944 86.2725 43.312C87.0085 43.664 87.6165 44.12 88.0965 44.68C88.5765 45.224 88.9285 45.832 89.1525 46.504C89.3765 47.16 89.4885 47.8 89.4885 48.424V50.032H80.7525ZM83.6085 45.496C82.8405 45.496 82.2165 45.696 81.7365 46.096C81.2565 46.48 80.9445 46.928 80.8005 47.44H86.4165C86.3205 46.88 86.0165 46.416 85.5045 46.048C85.0085 45.68 84.3765 45.496 83.6085 45.496ZM95.6964 47.464H96.2724L99.4404 43.096H102.752V43.24L98.9124 48.688V49.12L103.136 54.856V55H99.6804L96.2724 50.344H95.6964V55H92.6724V38.2H95.6964V47.464ZM105.552 52.12H109.584V45.976H105.84V43.096H112.608V52.12H116.064V55H105.552V52.12ZM113.352 39.568C113.352 39.888 113.288 40.192 113.16 40.48C113.048 40.752 112.888 40.992 112.68 41.2C112.472 41.392 112.224 41.552 111.936 41.68C111.664 41.792 111.376 41.848 111.072 41.848C110.752 41.848 110.456 41.792 110.184 41.68C109.912 41.552 109.672 41.392 109.464 41.2C109.256 40.992 109.088 40.752 108.96 40.48C108.848 40.192 108.792 39.888 108.792 39.568C108.792 39.248 108.848 38.952 108.96 38.68C109.088 38.392 109.256 38.152 109.464 37.96C109.672 37.752 109.912 37.592 110.184 37.48C110.456 37.352 110.752 37.288 111.072 37.288C111.376 37.288 111.664 37.352 111.936 37.48C112.224 37.592 112.472 37.752 112.68 37.96C112.888 38.152 113.048 38.392 113.16 38.68C113.288 38.952 113.352 39.248 113.352 39.568ZM122.752 46.456C122.752 46.84 122.952 47.12 123.352 47.296C123.752 47.456 124.48 47.592 125.536 47.704C126.752 47.832 127.744 48.2 128.512 48.808C129.28 49.4 129.664 50.232 129.664 51.304V51.448C129.664 52.632 129.232 53.576 128.368 54.28C127.504 54.984 126.288 55.336 124.72 55.336C123.792 55.336 123 55.216 122.344 54.976C121.688 54.736 121.144 54.44 120.712 54.088C120.28 53.72 119.944 53.32 119.704 52.888C119.48 52.44 119.328 52.008 119.248 51.592L122.032 50.68C122.16 51.192 122.424 51.64 122.824 52.024C123.24 52.408 123.872 52.6 124.72 52.6C125.472 52.6 125.984 52.488 126.256 52.264C126.544 52.024 126.688 51.768 126.688 51.496C126.688 51.336 126.648 51.192 126.568 51.064C126.504 50.92 126.376 50.792 126.184 50.68C125.992 50.552 125.728 50.448 125.392 50.368C125.072 50.288 124.664 50.224 124.168 50.176C122.824 50.064 121.752 49.72 120.952 49.144C120.168 48.552 119.776 47.688 119.776 46.552V46.408C119.776 45.816 119.904 45.296 120.16 44.848C120.416 44.4 120.752 44.024 121.168 43.72C121.584 43.4 122.064 43.16 122.608 43C123.152 42.84 123.712 42.76 124.288 42.76C125.04 42.76 125.688 42.856 126.232 43.048C126.792 43.224 127.264 43.464 127.648 43.768C128.032 44.056 128.344 44.384 128.584 44.752C128.824 45.104 129.008 45.448 129.136 45.784L126.4 46.888C126.256 46.456 126.008 46.12 125.656 45.88C125.304 45.624 124.848 45.496 124.288 45.496C123.776 45.496 123.392 45.592 123.136 45.784C122.88 45.96 122.752 46.184 122.752 46.456ZM132.248 43.096H135.776V38.2H138.8V43.096H143.096V45.976H138.8V51.4C138.8 51.88 139.016 52.12 139.448 52.12H142.664V55H137.624C137.08 55 136.632 54.824 136.28 54.472C135.944 54.12 135.776 53.672 135.776 53.128V45.976H132.248V43.096ZM153.912 53.272C153.592 54.024 153.144 54.56 152.568 54.88C151.992 55.184 151.32 55.336 150.552 55.336C149.832 55.336 149.152 55.2 148.512 54.928C147.888 54.656 147.336 54.256 146.856 53.728C146.376 53.2 145.992 52.56 145.704 51.808C145.432 51.056 145.296 50.2 145.296 49.24V48.856C145.296 47.912 145.432 47.064 145.704 46.312C145.976 45.56 146.344 44.92 146.808 44.392C147.272 43.864 147.808 43.464 148.416 43.192C149.04 42.904 149.704 42.76 150.408 42.76C151.256 42.76 151.936 42.904 152.448 43.192C152.976 43.48 153.392 43.928 153.696 44.536H154.128V43.096H157.152V51.4C157.152 51.88 157.368 52.12 157.8 52.12H158.256V55H156.192C155.648 55 155.2 54.84 154.848 54.52C154.512 54.2 154.344 53.784 154.344 53.272H153.912ZM151.224 52.456C152.104 52.456 152.808 52.168 153.336 51.592C153.864 51 154.128 50.2 154.128 49.192V48.904C154.128 47.896 153.864 47.104 153.336 46.528C152.808 45.936 152.104 45.64 151.224 45.64C150.344 45.64 149.64 45.936 149.112 46.528C148.584 47.104 148.32 47.896 148.32 48.904V49.192C148.32 50.2 148.584 51 149.112 51.592C149.64 52.168 150.344 52.456 151.224 52.456ZM162.856 55H159.832V43.096H162.856V44.872H163.288C163.56 44.2 164 43.68 164.608 43.312C165.216 42.944 165.928 42.76 166.744 42.76C167.32 42.76 167.856 42.856 168.352 43.048C168.864 43.224 169.312 43.504 169.696 43.888C170.08 44.272 170.376 44.76 170.584 45.352C170.808 45.944 170.92 46.648 170.92 47.464V55H167.896V48.232C167.896 47.384 167.688 46.72 167.272 46.24C166.872 45.744 166.288 45.496 165.52 45.496C164.624 45.496 163.952 45.8 163.504 46.408C163.072 47 162.856 47.8 162.856 48.808V55Z" fill="white"/>
</g>
<defs>
<filter id="filter0_d_0_2014" x="0" y="0" width="209" height="108" filterUnits="userSpaceOnUse" color-interpolation-filters="sRGB">
<feFlood flood-opacity="0" result="BackgroundImageFix"/>
<feColorMatrix in="SourceAlpha" type="matrix" values="0 0 0 0 0 0 0 0 0 0 0 0 0 0 0 0 0 0 127 0" result="hardAlpha"/>
<feOffset/>
<feGaussianBlur stdDeviation="5"/>
<feColorMatrix type="matrix" values="0 0 0 0 0 0 0 0 0 0 0 0 0 0 0 0 0 0 0.5 0"/>
<feBlend mode="normal" in2="BackgroundImageFix" result="effect1_dropShadow_0_2014"/>
<feBlend mode="normal" in="SourceGraphic" in2="effect1_dropShadow_0_2014" result="shape"/>
</filter>
</defs>
</svg>
