<svg width="189" height="88" viewBox="0 0 189 88" fill="none" xmlns="http://www.w3.org/2000/svg">
<path fill-rule="evenodd" clip-rule="evenodd" d="M189 0H0V72H78L94 88L110 72H189V0Z" fill="#FACF0F"/>
<path d="M38.7369 28.2V39.192C38.7369 41.112 38.2249 42.616 37.2009 43.704C36.1929 44.792 34.6889 45.336 32.6889 45.336C30.6889 45.336 29.1769 44.792 28.1529 43.704C27.1449 42.616 26.6409 41.112 26.6409 39.192V28.2H29.8089V39.192C29.8089 40.184 30.0409 40.96 30.5049 41.52C30.9689 42.08 31.6969 42.36 32.6889 42.36C33.6809 42.36 34.4089 42.08 34.8729 41.52C35.3369 40.96 35.5689 40.184 35.5689 39.192V28.2H38.7369ZM51.5207 42.12V45H41.1527V39.96L48.6407 36.312V35.88H41.2967V33.096H51.2327V37.992L43.7447 41.688V42.12H51.5207ZM56.9846 45H53.9606V28.2H56.9846V34.824H57.4166C57.7366 34.168 58.2006 33.664 58.8086 33.312C59.4166 32.944 60.1926 32.76 61.1366 32.76C61.8406 32.76 62.5046 32.896 63.1286 33.168C63.7686 33.44 64.3206 33.84 64.7846 34.368C65.2646 34.88 65.6406 35.512 65.9126 36.264C66.2006 37.016 66.3446 37.872 66.3446 38.832V39.264C66.3446 40.24 66.2086 41.104 65.9366 41.856C65.6646 42.608 65.2966 43.248 64.8326 43.776C64.3686 44.288 63.8166 44.68 63.1766 44.952C62.5526 45.208 61.8726 45.336 61.1366 45.336C60.5926 45.336 60.1206 45.28 59.7206 45.168C59.3206 45.056 58.9686 44.904 58.6646 44.712C58.3766 44.52 58.1286 44.304 57.9206 44.064C57.7286 43.808 57.5606 43.544 57.4166 43.272H56.9846V45ZM60.1526 42.456C61.0966 42.456 61.8566 42.168 62.4326 41.592C63.0246 41 63.3206 40.2 63.3206 39.192V38.904C63.3206 37.896 63.0246 37.104 62.4326 36.528C61.8566 35.936 61.0966 35.64 60.1526 35.64C59.2086 35.64 58.4406 35.944 57.8486 36.552C57.2726 37.144 56.9846 37.928 56.9846 38.904V39.192C56.9846 40.168 57.2726 40.96 57.8486 41.568C58.4406 42.16 59.2086 42.456 60.1526 42.456ZM70.7525 40.032C70.7685 40.384 70.8485 40.712 70.9925 41.016C71.1525 41.304 71.3605 41.56 71.6165 41.784C71.8885 41.992 72.1925 42.16 72.5285 42.288C72.8805 42.4 73.2485 42.456 73.6325 42.456C74.3845 42.456 74.9605 42.328 75.3605 42.072C75.7605 41.8 76.0485 41.48 76.2245 41.112L78.8165 42.552C78.6725 42.856 78.4725 43.176 78.2165 43.512C77.9605 43.832 77.6245 44.128 77.2085 44.4C76.8085 44.672 76.3125 44.896 75.7205 45.072C75.1445 45.248 74.4645 45.336 73.6805 45.336C72.7845 45.336 71.9685 45.192 71.2325 44.904C70.4965 44.616 69.8565 44.2 69.3125 43.656C68.7845 43.112 68.3685 42.448 68.0645 41.664C67.7765 40.88 67.6325 39.992 67.6325 39V38.856C67.6325 37.944 67.7845 37.112 68.0885 36.36C68.4085 35.608 68.8405 34.968 69.3845 34.44C69.9285 33.912 70.5605 33.504 71.2805 33.216C72.0165 32.912 72.8005 32.76 73.6325 32.76C74.6565 32.76 75.5365 32.944 76.2725 33.312C77.0085 33.664 77.6165 34.12 78.0965 34.68C78.5765 35.224 78.9285 35.832 79.1525 36.504C79.3765 37.16 79.4885 37.8 79.4885 38.424V40.032H70.7525ZM73.6085 35.496C72.8405 35.496 72.2165 35.696 71.7365 36.096C71.2565 36.48 70.9445 36.928 70.8005 37.44H76.4165C76.3205 36.88 76.0165 36.416 75.5045 36.048C75.0085 35.68 74.3765 35.496 73.6085 35.496ZM85.6964 37.464H86.2724L89.4404 33.096H92.7524V33.24L88.9124 38.688V39.12L93.1364 44.856V45H89.6804L86.2724 40.344H85.6964V45H82.6724V28.2H85.6964V37.464ZM95.5523 42.12H99.5843V35.976H95.8403V33.096H102.608V42.12H106.064V45H95.5523V42.12ZM103.352 29.568C103.352 29.888 103.288 30.192 103.16 30.48C103.048 30.752 102.888 30.992 102.68 31.2C102.472 31.392 102.224 31.552 101.936 31.68C101.664 31.792 101.376 31.848 101.072 31.848C100.752 31.848 100.456 31.792 100.184 31.68C99.9123 31.552 99.6723 31.392 99.4643 31.2C99.2563 30.992 99.0883 30.752 98.9603 30.48C98.8483 30.192 98.7923 29.888 98.7923 29.568C98.7923 29.248 98.8483 28.952 98.9603 28.68C99.0883 28.392 99.2563 28.152 99.4643 27.96C99.6723 27.752 99.9123 27.592 100.184 27.48C100.456 27.352 100.752 27.288 101.072 27.288C101.376 27.288 101.664 27.352 101.936 27.48C102.224 27.592 102.472 27.752 102.68 27.96C102.888 28.152 103.048 28.392 103.16 28.68C103.288 28.952 103.352 29.248 103.352 29.568ZM112.752 36.456C112.752 36.84 112.952 37.12 113.352 37.296C113.752 37.456 114.48 37.592 115.536 37.704C116.752 37.832 117.744 38.2 118.512 38.808C119.28 39.4 119.664 40.232 119.664 41.304V41.448C119.664 42.632 119.232 43.576 118.368 44.28C117.504 44.984 116.288 45.336 114.72 45.336C113.792 45.336 113 45.216 112.344 44.976C111.688 44.736 111.144 44.44 110.712 44.088C110.28 43.72 109.944 43.32 109.704 42.888C109.48 42.44 109.328 42.008 109.248 41.592L112.032 40.68C112.16 41.192 112.424 41.64 112.824 42.024C113.24 42.408 113.872 42.6 114.72 42.6C115.472 42.6 115.984 42.488 116.256 42.264C116.544 42.024 116.688 41.768 116.688 41.496C116.688 41.336 116.648 41.192 116.568 41.064C116.504 40.92 116.376 40.792 116.184 40.68C115.992 40.552 115.728 40.448 115.392 40.368C115.072 40.288 114.664 40.224 114.168 40.176C112.824 40.064 111.752 39.72 110.952 39.144C110.168 38.552 109.776 37.688 109.776 36.552V36.408C109.776 35.816 109.904 35.296 110.16 34.848C110.416 34.4 110.752 34.024 111.168 33.72C111.584 33.4 112.064 33.16 112.608 33C113.152 32.84 113.712 32.76 114.288 32.76C115.04 32.76 115.688 32.856 116.232 33.048C116.792 33.224 117.264 33.464 117.648 33.768C118.032 34.056 118.344 34.384 118.584 34.752C118.824 35.104 119.008 35.448 119.136 35.784L116.4 36.888C116.256 36.456 116.008 36.12 115.656 35.88C115.304 35.624 114.848 35.496 114.288 35.496C113.776 35.496 113.392 35.592 113.136 35.784C112.88 35.96 112.752 36.184 112.752 36.456ZM122.248 33.096H125.776V28.2H128.8V33.096H133.096V35.976H128.8V41.4C128.8 41.88 129.016 42.12 129.448 42.12H132.664V45H127.624C127.08 45 126.632 44.824 126.28 44.472C125.944 44.12 125.776 43.672 125.776 43.128V35.976H122.248V33.096ZM143.912 43.272C143.592 44.024 143.144 44.56 142.568 44.88C141.992 45.184 141.32 45.336 140.552 45.336C139.832 45.336 139.152 45.2 138.512 44.928C137.888 44.656 137.336 44.256 136.856 43.728C136.376 43.2 135.992 42.56 135.704 41.808C135.432 41.056 135.296 40.2 135.296 39.24V38.856C135.296 37.912 135.432 37.064 135.704 36.312C135.976 35.56 136.344 34.92 136.808 34.392C137.272 33.864 137.808 33.464 138.416 33.192C139.04 32.904 139.704 32.76 140.408 32.76C141.256 32.76 141.936 32.904 142.448 33.192C142.976 33.48 143.392 33.928 143.696 34.536H144.128V33.096H147.152V41.4C147.152 41.88 147.368 42.12 147.8 42.12H148.256V45H146.192C145.648 45 145.2 44.84 144.848 44.52C144.512 44.2 144.344 43.784 144.344 43.272H143.912ZM141.224 42.456C142.104 42.456 142.808 42.168 143.336 41.592C143.864 41 144.128 40.2 144.128 39.192V38.904C144.128 37.896 143.864 37.104 143.336 36.528C142.808 35.936 142.104 35.64 141.224 35.64C140.344 35.64 139.64 35.936 139.112 36.528C138.584 37.104 138.32 37.896 138.32 38.904V39.192C138.32 40.2 138.584 41 139.112 41.592C139.64 42.168 140.344 42.456 141.224 42.456ZM152.856 45H149.832V33.096H152.856V34.872H153.288C153.56 34.2 154 33.68 154.608 33.312C155.216 32.944 155.928 32.76 156.744 32.76C157.32 32.76 157.856 32.856 158.352 33.048C158.864 33.224 159.312 33.504 159.696 33.888C160.08 34.272 160.376 34.76 160.584 35.352C160.808 35.944 160.92 36.648 160.92 37.464V45H157.896V38.232C157.896 37.384 157.688 36.72 157.272 36.24C156.872 35.744 156.288 35.496 155.52 35.496C154.624 35.496 153.952 35.8 153.504 36.408C153.072 37 152.856 37.8 152.856 38.808V45Z" fill="#333333"/>
</svg>
